<?xml version="1.0" encoding="UTF-8"?>
<!DOCTYPE svg PUBLIC "-//W3C//DTD SVG 1.1//EN" "http://www.w3.org/Graphics/SVG/1.1/DTD/svg11.dtd">
<svg xmlns="http://www.w3.org/2000/svg" version="1.1" width="512px" height="512px" style="shape-rendering:geometricPrecision; text-rendering:geometricPrecision; image-rendering:optimizeQuality; fill-rule:evenodd; clip-rule:evenodd" xmlns:xlink="http://www.w3.org/1999/xlink">
<g><path style="opacity:0.995" fill="#add741" d="M 238.5,-0.5 C 253.5,-0.5 268.5,-0.5 283.5,-0.5C 283.5,-0.166667 283.5,0.166667 283.5,0.5C 261.775,32.9302 240.275,65.5969 219,98.5C 218.184,99.8228 217.017,100.489 215.5,100.5C 211.692,100.163 208.026,100.663 204.5,102C 199.289,107.542 194.456,113.375 190,119.5C 188.798,121.677 188.298,124.011 188.5,126.5C 176.903,139.937 165.07,153.27 153,166.5C 150.234,169.777 147.067,172.443 143.5,174.5C 139.395,174.234 135.395,174.734 131.5,176C 115.438,186.693 99.1051,196.859 82.5,206.5C 78.3944,208.388 74.3944,210.554 70.5,213C 64.6635,218.004 58.9969,223.171 53.5,228.5C 46.6266,226.608 39.6266,226.108 32.5,227C 26.5564,228.974 20.8897,231.474 15.5,234.5C 22.1751,142.589 65.1751,73.7556 144.5,28C 174.162,12.5903 205.495,3.09027 238.5,-0.5 Z"/></g>
<g><path style="opacity:1" fill="#fabc8d" d="M 283.5,0.5 C 310.74,2.47634 336.74,9.14301 361.5,20.5C 335.211,51.9606 308.711,83.2939 282,114.5C 273.4,126.141 270.233,139.141 272.5,153.5C 272.167,153.5 271.833,153.5 271.5,153.5C 253.602,139.771 237.435,124.104 223,106.5C 220.866,103.847 218.366,101.847 215.5,100.5C 217.017,100.489 218.184,99.8228 219,98.5C 240.275,65.5969 261.775,32.9302 283.5,0.5 Z"/></g>
<g><path style="opacity:0.999" fill="#f8cfa8" d="M 361.5,20.5 C 387.517,31.8691 410.517,47.5357 430.5,67.5C 427.835,70.3347 425.335,73.3347 423,76.5C 387.272,112.395 351.438,148.062 315.5,183.5C 314.069,181.563 312.402,179.73 310.5,178C 296.918,171.055 284.252,162.889 272.5,153.5C 270.233,139.141 273.4,126.141 282,114.5C 308.711,83.2939 335.211,51.9606 361.5,20.5 Z"/></g>
<g><path style="opacity:0.997" fill="#add741" d="M 430.5,67.5 C 477.398,112.65 502.731,167.983 506.5,233.5C 489.058,223.316 472.391,224.483 456.5,237C 450.617,238.592 445.617,237.259 441.5,233C 437.361,230.594 433.028,228.761 428.5,227.5C 423.25,226.385 417.917,226.219 412.5,227C 405.276,229.279 398.609,232.612 392.5,237C 386.934,238.54 382.268,237.207 378.5,233C 361.24,223.328 344.907,224.661 329.5,237C 323.083,238.699 317.75,237.033 313.5,232C 303.75,226.635 293.417,225.135 282.5,227.5C 284.91,222.346 287.577,217.346 290.5,212.5C 293.811,212.091 296.811,210.924 299.5,209C 304.634,204.867 309.468,200.367 314,195.5C 316.573,191.735 317.073,187.735 315.5,183.5C 351.438,148.062 387.272,112.395 423,76.5C 425.335,73.3347 427.835,70.3347 430.5,67.5 Z"/></g>
<g><path style="opacity:1" fill="#8bc2ee" d="M 215.5,100.5 C 218.366,101.847 220.866,103.847 223,106.5C 237.435,124.104 253.602,139.771 271.5,153.5C 264.274,155.06 257.274,157.56 250.5,161C 243.221,166.4 240.555,173.567 242.5,182.5C 222.564,168.247 204.731,151.58 189,132.5C 188.505,130.527 188.338,128.527 188.5,126.5C 188.298,124.011 188.798,121.677 190,119.5C 194.456,113.375 199.289,107.542 204.5,102C 208.026,100.663 211.692,100.163 215.5,100.5 Z"/></g>
<g><path style="opacity:1" fill="#cde1fe" d="M 188.5,126.5 C 188.338,128.527 188.505,130.527 189,132.5C 204.731,151.58 222.564,168.247 242.5,182.5C 242.5,182.833 242.5,183.167 242.5,183.5C 229.852,193.252 218.352,204.252 208,216.5C 203.342,222.976 200.509,230.143 199.5,238C 199.504,247.517 203.504,254.684 211.5,259.5C 204.353,261.559 197.02,261.893 189.5,260.5C 165.47,256.679 151.47,242.845 147.5,219C 148.179,210.117 150.346,201.617 154,193.5C 155.161,184.482 151.661,178.149 143.5,174.5C 147.067,172.443 150.234,169.777 153,166.5C 165.07,153.27 176.903,139.937 188.5,126.5 Z"/></g>
<g><path style="opacity:1" fill="#aad1f6" d="M 271.5,153.5 C 271.833,153.5 272.167,153.5 272.5,153.5C 284.252,162.889 296.918,171.055 310.5,178C 312.402,179.73 314.069,181.563 315.5,183.5C 317.073,187.735 316.573,191.735 314,195.5C 309.468,200.367 304.634,204.867 299.5,209C 296.811,210.924 293.811,212.091 290.5,212.5C 288.473,212.662 286.473,212.495 284.5,212C 270.298,202.737 256.298,193.237 242.5,183.5C 242.5,183.167 242.5,182.833 242.5,182.5C 240.555,173.567 243.221,166.4 250.5,161C 257.274,157.56 264.274,155.06 271.5,153.5 Z"/></g>
<g><path style="opacity:1" fill="#e6387f" d="M 143.5,174.5 C 151.661,178.149 155.161,184.482 154,193.5C 150.346,201.617 148.179,210.117 147.5,219C 151.47,242.845 165.47,256.679 189.5,260.5C 163.817,265.015 147.984,280.015 142,305.5C 141.283,315.682 141.449,325.849 142.5,336C 142.755,339.408 141.755,342.241 139.5,344.5C 126.306,337.742 113.973,329.742 102.5,320.5C 116.261,315.904 125.095,306.57 129,292.5C 130.564,282.551 128.898,273.217 124,264.5C 111,245.5 98,226.5 85,207.5C 84.3292,206.748 83.4959,206.414 82.5,206.5C 99.1051,196.859 115.438,186.693 131.5,176C 135.395,174.734 139.395,174.234 143.5,174.5 Z"/></g>
<g><path style="opacity:1" fill="#f6f2f0" d="M 242.5,183.5 C 256.298,193.237 270.298,202.737 284.5,212C 286.473,212.495 288.473,212.662 290.5,212.5C 287.577,217.346 284.91,222.346 282.5,227.5C 281.434,229.701 280.767,232.035 280.5,234.5C 277.06,236.055 273.727,237.888 270.5,240C 263.277,245.764 255.944,251.264 248.5,256.5C 236.705,256.136 225.038,257.136 213.5,259.5C 212.833,259.5 212.167,259.5 211.5,259.5C 203.504,254.684 199.504,247.517 199.5,238C 200.509,230.143 203.342,222.976 208,216.5C 218.352,204.252 229.852,193.252 242.5,183.5 Z"/></g>
<g><path style="opacity:1" fill="#c6237c" d="M 82.5,206.5 C 83.4959,206.414 84.3292,206.748 85,207.5C 98,226.5 111,245.5 124,264.5C 128.898,273.217 130.564,282.551 129,292.5C 125.095,306.57 116.261,315.904 102.5,320.5C 76.0879,303.089 54.4212,281.089 37.5,254.5C 41.8191,245.192 47.1525,236.526 53.5,228.5C 58.9969,223.171 64.6635,218.004 70.5,213C 74.3944,210.554 78.3944,208.388 82.5,206.5 Z"/></g>
<g><path style="opacity:1" fill="#5fb33b" d="M 53.5,228.5 C 47.1525,236.526 41.8191,245.192 37.5,254.5C 34.7261,255.723 32.0594,257.223 29.5,259C 25.2507,263.419 20.9173,267.586 16.5,271.5C 15.7826,259.18 15.4493,246.847 15.5,234.5C 20.8897,231.474 26.5564,228.974 32.5,227C 39.6266,226.108 46.6266,226.608 53.5,228.5 Z"/></g>
<g><path style="opacity:1" fill="#5db33a" d="M 428.5,227.5 C 425.331,233.027 423.998,239.027 424.5,245.5C 425.672,253.496 426.506,261.496 427,269.5C 422.044,274.825 417.044,280.159 412,285.5C 408.884,290.014 407.051,295.014 406.5,300.5C 377.5,300.5 348.5,300.5 319.5,300.5C 318.833,298.5 318.167,296.5 317.5,294.5C 315.298,288.562 313.298,282.562 311.5,276.5C 315.171,273.707 316.338,270.04 315,265.5C 312.592,262.38 309.426,261.047 305.5,261.5C 302.82,253.626 299.654,245.96 296,238.5C 291.614,233.98 286.447,232.647 280.5,234.5C 280.767,232.035 281.434,229.701 282.5,227.5C 293.417,225.135 303.75,226.635 313.5,232C 317.75,237.033 323.083,238.699 329.5,237C 344.907,224.661 361.24,223.328 378.5,233C 382.268,237.207 386.934,238.54 392.5,237C 398.609,232.612 405.276,229.279 412.5,227C 417.917,226.219 423.25,226.385 428.5,227.5 Z"/></g>
<g><path style="opacity:0.997" fill="#8ecb50" d="M 506.5,233.5 C 507.024,256.071 505.024,278.404 500.5,300.5C 469.167,300.5 437.833,300.5 406.5,300.5C 407.051,295.014 408.884,290.014 412,285.5C 417.044,280.159 422.044,274.825 427,269.5C 426.506,261.496 425.672,253.496 424.5,245.5C 423.998,239.027 425.331,233.027 428.5,227.5C 433.028,228.761 437.361,230.594 441.5,233C 445.617,237.259 450.617,238.592 456.5,237C 472.391,224.483 489.058,223.316 506.5,233.5 Z"/></g>
<g><path style="opacity:1" fill="#a9226b" d="M 305.5,261.5 C 294.709,264.193 283.709,266.526 272.5,268.5C 266.188,261.344 258.188,257.344 248.5,256.5C 255.944,251.264 263.277,245.764 270.5,240C 273.727,237.888 277.06,236.055 280.5,234.5C 286.447,232.647 291.614,233.98 296,238.5C 299.654,245.96 302.82,253.626 305.5,261.5 Z"/></g>
<g><path style="opacity:1" fill="#aad0f6" d="M 37.5,254.5 C 54.4212,281.089 76.0879,303.089 102.5,320.5C 113.973,329.742 126.306,337.742 139.5,344.5C 139.5,344.833 139.5,345.167 139.5,345.5C 135.395,350.723 130.062,354.223 123.5,356C 118.211,359.064 114.711,363.564 113,369.5C 112.5,375.825 112.334,382.158 112.5,388.5C 85.461,373.657 59.461,357.323 34.5,339.5C 26.7904,333.203 19.2904,326.536 12,319.5C 3.27937,308.186 2.27937,296.186 9,283.5C 11.7245,279.615 14.2245,275.615 16.5,271.5C 20.9173,267.586 25.2507,263.419 29.5,259C 32.0594,257.223 34.7261,255.723 37.5,254.5 Z"/></g>
<g><path style="opacity:1" fill="#e6397f" d="M 248.5,256.5 C 258.188,257.344 266.188,261.344 272.5,268.5C 263.694,269.861 255.027,271.861 246.5,274.5C 243.183,277.74 242.683,281.407 245,285.5C 246.722,287.444 248.889,288.444 251.5,288.5C 261.76,286.079 272.093,284.079 282.5,282.5C 286.749,288.661 290.749,294.995 294.5,301.5C 296.692,304.55 298.358,307.883 299.5,311.5C 294.704,311.891 290.204,313.224 286,315.5C 282.431,322.985 284.597,327.318 292.5,328.5C 297.899,327.753 303.232,326.753 308.5,325.5C 311.594,329.926 314.261,334.593 316.5,339.5C 313.338,340.863 310.004,341.697 306.5,342C 301.619,346.375 301.285,351.042 305.5,356C 307,356.167 308.5,356.333 310,356.5C 314.833,355.766 319.666,355.1 324.5,354.5C 325.496,354.414 326.329,354.748 327,355.5C 329.523,359.888 332.023,364.222 334.5,368.5C 329.269,368.37 324.769,370.037 321,373.5C 318.717,379.602 320.717,383.602 327,385.5C 334.554,383.89 342.054,382.223 349.5,380.5C 352.417,391.959 357.417,402.293 364.5,411.5C 355.751,411.156 347.085,410.156 338.5,408.5C 325.259,403.55 315.259,394.883 308.5,382.5C 307.333,382.167 306.167,381.833 305,381.5C 276.397,386.721 247.897,392.387 219.5,398.5C 210.441,389.438 201.108,380.771 191.5,372.5C 224.207,365.758 256.873,358.758 289.5,351.5C 284.667,343.167 279.833,334.833 275,326.5C 274.184,325.177 273.017,324.511 271.5,324.5C 272.686,322.806 272.519,321.139 271,319.5C 267.625,313.915 264.125,308.415 260.5,303C 254.853,303.3 249.186,303.3 243.5,303C 239.103,301.383 235.269,298.883 232,295.5C 225.3,284.296 218.8,272.962 212.5,261.5C 212.863,260.817 213.196,260.15 213.5,259.5C 225.038,257.136 236.705,256.136 248.5,256.5 Z"/></g>
<g><path style="opacity:1" fill="#e4636e" d="M 211.5,259.5 C 212.167,259.5 212.833,259.5 213.5,259.5C 213.196,260.15 212.863,260.817 212.5,261.5C 218.8,272.962 225.3,284.296 232,295.5C 235.269,298.883 239.103,301.383 243.5,303C 249.186,303.3 254.853,303.3 260.5,303C 264.125,308.415 267.625,313.915 271,319.5C 272.519,321.139 272.686,322.806 271.5,324.5C 230.366,332.193 189.366,340.527 148.5,349.5C 145.648,347.909 142.648,346.576 139.5,345.5C 139.5,345.167 139.5,344.833 139.5,344.5C 141.755,342.241 142.755,339.408 142.5,336C 141.449,325.849 141.283,315.682 142,305.5C 147.984,280.015 163.817,265.015 189.5,260.5C 197.02,261.893 204.353,261.559 211.5,259.5 Z"/></g>
<g><path style="opacity:1" fill="#f6f0ef" d="M 305.5,261.5 C 309.426,261.047 312.592,262.38 315,265.5C 316.338,270.04 315.171,273.707 311.5,276.5C 301.611,278.01 291.944,280.01 282.5,282.5C 272.093,284.079 261.76,286.079 251.5,288.5C 248.889,288.444 246.722,287.444 245,285.5C 242.683,281.407 243.183,277.74 246.5,274.5C 255.027,271.861 263.694,269.861 272.5,268.5C 283.709,266.526 294.709,264.193 305.5,261.5 Z"/></g>
<g><path style="opacity:1" fill="#aa236b" d="M 311.5,276.5 C 313.298,282.562 315.298,288.562 317.5,294.5C 313.154,294.334 308.821,294.501 304.5,295C 300.997,297.022 297.663,299.189 294.5,301.5C 290.749,294.995 286.749,288.661 282.5,282.5C 291.944,280.01 301.611,278.01 311.5,276.5 Z"/></g>
<g><path style="opacity:1" fill="#c5267c" d="M 317.5,294.5 C 318.167,296.5 318.833,298.5 319.5,300.5C 320.939,302.588 321.606,304.921 321.5,307.5C 314.119,308.619 306.786,309.952 299.5,311.5C 298.358,307.883 296.692,304.55 294.5,301.5C 297.663,299.189 300.997,297.022 304.5,295C 308.821,294.501 313.154,294.334 317.5,294.5 Z"/></g>
<g><path style="opacity:1" fill="#212335" d="M 319.5,300.5 C 348.5,300.5 377.5,300.5 406.5,300.5C 412.959,306.248 416.959,313.414 418.5,322C 417.984,326.549 416.484,330.715 414,334.5C 409.143,338.601 404.476,342.934 400,347.5C 396.718,354.473 396.718,361.473 400,368.5C 406.273,379.44 415.106,387.606 426.5,393C 433.822,396.486 441.155,399.652 448.5,402.5C 439.506,413.161 429.839,423.161 419.5,432.5C 410.426,429.698 401.426,426.698 392.5,423.5C 383.235,419.539 373.901,415.539 364.5,411.5C 357.417,402.293 352.417,391.959 349.5,380.5C 354.766,376.045 354.766,371.545 349.5,367C 347.527,366.505 345.527,366.338 343.5,366.5C 342.117,361.402 340.45,356.402 338.5,351.5C 344.061,343.29 342.061,338.29 332.5,336.5C 331.117,331.402 329.45,326.402 327.5,321.5C 331.712,316.707 331.378,312.207 326.5,308C 324.866,307.506 323.199,307.34 321.5,307.5C 321.606,304.921 320.939,302.588 319.5,300.5 Z"/></g>
<g><path style="opacity:0.997" fill="#373f50" d="M 406.5,300.5 C 437.833,300.5 469.167,300.5 500.5,300.5C 491.043,338.751 473.71,372.751 448.5,402.5C 441.155,399.652 433.822,396.486 426.5,393C 415.106,387.606 406.273,379.44 400,368.5C 396.718,361.473 396.718,354.473 400,347.5C 404.476,342.934 409.143,338.601 414,334.5C 416.484,330.715 417.984,326.549 418.5,322C 416.959,313.414 412.959,306.248 406.5,300.5 Z"/></g>
<g><path style="opacity:1" fill="#f5eeee" d="M 321.5,307.5 C 323.199,307.34 324.866,307.506 326.5,308C 331.378,312.207 331.712,316.707 327.5,321.5C 321.086,322.583 314.752,323.916 308.5,325.5C 303.232,326.753 297.899,327.753 292.5,328.5C 284.597,327.318 282.431,322.985 286,315.5C 290.204,313.224 294.704,311.891 299.5,311.5C 306.786,309.952 314.119,308.619 321.5,307.5 Z"/></g>
<g><path style="opacity:1" fill="#c5297d" d="M 327.5,321.5 C 329.45,326.402 331.117,331.402 332.5,336.5C 327.288,338.055 321.955,339.055 316.5,339.5C 314.261,334.593 311.594,329.926 308.5,325.5C 314.752,323.916 321.086,322.583 327.5,321.5 Z"/></g>
<g><path style="opacity:1" fill="#c6247c" d="M 271.5,324.5 C 273.017,324.511 274.184,325.177 275,326.5C 279.833,334.833 284.667,343.167 289.5,351.5C 256.873,358.758 224.207,365.758 191.5,372.5C 177.604,364.052 163.271,356.385 148.5,349.5C 189.366,340.527 230.366,332.193 271.5,324.5 Z"/></g>
<g><path style="opacity:1" fill="#f6f0ef" d="M 332.5,336.5 C 342.061,338.29 344.061,343.29 338.5,351.5C 333.609,352.01 328.942,353.01 324.5,354.5C 319.666,355.1 314.833,355.766 310,356.5C 308.5,356.333 307,356.167 305.5,356C 301.285,351.042 301.619,346.375 306.5,342C 310.004,341.697 313.338,340.863 316.5,339.5C 321.955,339.055 327.288,338.055 332.5,336.5 Z"/></g>
<g><path style="opacity:1" fill="#212335" d="M 34.5,339.5 C 59.461,357.323 85.461,373.657 112.5,388.5C 129.871,397.707 146.871,407.54 163.5,418C 191.163,442.803 219.497,466.636 248.5,489.5C 176.526,484.93 117.359,455.263 71,400.5C 56.1882,381.831 44.0216,361.498 34.5,339.5 Z"/></g>
<g><path style="opacity:0.996" fill="#cce1fe" d="M 139.5,345.5 C 142.648,346.576 145.648,347.909 148.5,349.5C 163.271,356.385 177.604,364.052 191.5,372.5C 201.108,380.771 210.441,389.438 219.5,398.5C 241.581,422.09 265.914,442.923 292.5,461C 309.152,466.118 326.152,469.618 343.5,471.5C 350.968,472.99 358.634,473.99 366.5,474.5C 383.765,476.145 401.098,476.812 418.5,476.5C 430.158,475.723 441.825,475.056 453.5,474.5C 452.417,486.737 446.417,495.571 435.5,501C 415.672,506.233 395.672,509.733 375.5,511.5C 356.833,511.5 338.167,511.5 319.5,511.5C 299.324,511.124 279.99,506.624 261.5,498C 256.76,495.64 252.426,492.807 248.5,489.5C 219.497,466.636 191.163,442.803 163.5,418C 146.871,407.54 129.871,397.707 112.5,388.5C 112.334,382.158 112.5,375.825 113,369.5C 114.711,363.564 118.211,359.064 123.5,356C 130.062,354.223 135.395,350.723 139.5,345.5 Z"/></g>
<g><path style="opacity:1" fill="#c52b7d" d="M 338.5,351.5 C 340.45,356.402 342.117,361.402 343.5,366.5C 340.5,367.167 337.5,367.833 334.5,368.5C 332.023,364.222 329.523,359.888 327,355.5C 326.329,354.748 325.496,354.414 324.5,354.5C 328.942,353.01 333.609,352.01 338.5,351.5 Z"/></g>
<g><path style="opacity:1" fill="#f6efee" d="M 343.5,366.5 C 345.527,366.338 347.527,366.505 349.5,367C 354.766,371.545 354.766,376.045 349.5,380.5C 342.054,382.223 334.554,383.89 327,385.5C 320.717,383.602 318.717,379.602 321,373.5C 324.769,370.037 329.269,368.37 334.5,368.5C 337.5,367.833 340.5,367.167 343.5,366.5 Z"/></g>
<g><path style="opacity:1" fill="#e4646e" d="M 338.5,408.5 C 343.291,418.372 346.791,428.705 349,439.5C 350.065,450.783 348.231,461.45 343.5,471.5C 326.152,469.618 309.152,466.118 292.5,461C 265.914,442.923 241.581,422.09 219.5,398.5C 247.897,392.387 276.397,386.721 305,381.5C 306.167,381.833 307.333,382.167 308.5,382.5C 315.259,394.883 325.259,403.55 338.5,408.5 Z"/></g>
<g><path style="opacity:1" fill="#c6247c" d="M 338.5,408.5 C 347.085,410.156 355.751,411.156 364.5,411.5C 373.901,415.539 383.235,419.539 392.5,423.5C 375.969,427.869 366.136,438.535 363,455.5C 362.333,461.167 362.333,466.833 363,472.5C 364.302,473.085 365.469,473.751 366.5,474.5C 358.634,473.99 350.968,472.99 343.5,471.5C 348.231,461.45 350.065,450.783 349,439.5C 346.791,428.705 343.291,418.372 338.5,408.5 Z"/></g>
<g><path style="opacity:1" fill="#e6397e" d="M 314.5,422.5 C 320.629,421.555 324.296,424.055 325.5,430C 323.062,436.117 319.395,441.451 314.5,446C 307.922,448.372 303.922,446.039 302.5,439C 305.412,432.663 309.412,427.163 314.5,422.5 Z"/></g>
<g><path style="opacity:1" fill="#e6397f" d="M 392.5,423.5 C 401.426,426.698 410.426,429.698 419.5,432.5C 424.393,433.796 429.06,435.462 433.5,437.5C 433.397,452.488 428.397,465.488 418.5,476.5C 401.098,476.812 383.765,476.145 366.5,474.5C 365.469,473.751 364.302,473.085 363,472.5C 362.333,466.833 362.333,461.167 363,455.5C 366.136,438.535 375.969,427.869 392.5,423.5 Z"/></g>
<g><path style="opacity:0.984" fill="#f6f1f0" d="M 433.5,437.5 C 444.581,440.752 451.415,448.085 454,459.5C 454.816,464.684 454.65,469.684 453.5,474.5C 441.825,475.056 430.158,475.723 418.5,476.5C 428.397,465.488 433.397,452.488 433.5,437.5 Z"/></g>
</svg>
